<svg xmlns="http://www.w3.org/2000/svg" width="64" height="64" viewBox="0 0 64 64" fill="none">
  <defs>
    <linearGradient id="rb_g" x1="12" y1="8" x2="52" y2="56" gradientUnits="userSpaceOnUse">
      <stop stop-color="#7C3AED"/>
      <stop offset="1" stop-color="#4F46E5"/>
    </linearGradient>
    <linearGradient id="rb_s" x1="20" y1="20" x2="44" y2="44" gradientUnits="userSpaceOnUse">
      <stop stop-color="#FFFFFF" stop-opacity="0.22"/>
      <stop offset="1" stop-color="#FFFFFF" stop-opacity="0"/>
    </linearGradient>
  </defs>

  <rect x="10" y="8" width="44" height="48" rx="16" fill="url(#rb_g)"/>
  <rect x="14" y="12" width="36" height="40" rx="14" fill="url(#rb_s)"/>

  <path d="M23 29c0-5 4-9 9-9s9 4 9 9v6c0 5-4 9-9 9s-9-4-9-9v-6Z" fill="#0B0B12" fill-opacity="0.22"/>
  <path d="M24 29c0-4.4 3.6-8 8-8s8 3.6 8 8v6c0 4.4-3.6 8-8 8s-8-3.6-8-8v-6Z" fill="#FFFFFF" fill-opacity="0.18"/>

  <circle cx="28" cy="32" r="3" fill="#FFFFFF"/>
  <circle cx="36" cy="32" r="3" fill="#FFFFFF"/>
  <circle cx="28" cy="32" r="1.2" fill="#111827" fill-opacity="0.75"/>
  <circle cx="36" cy="32" r="1.2" fill="#111827" fill-opacity="0.75"/>

  <path d="M30 38.5c1.1 1.0 2.9 1.0 4 0" stroke="#FFFFFF" stroke-opacity="0.85" stroke-width="2" stroke-linecap="round"/>

  <path d="M24 27.5c1.6-2.6 4.5-4.3 8-4.3s6.4 1.7 8 4.3" stroke="#FFFFFF" stroke-opacity="0.25" stroke-width="2" stroke-linecap="round"/>

  <path d="M26 20c.8-3.2 3.2-5 6-5s5.2 1.8 6 5" stroke="#FFFFFF" stroke-opacity="0.18" stroke-width="2" stroke-linecap="round"/>

  <path d="M21.5 44.5c2.7 2.6 6.3 4.2 10.5 4.2s7.8-1.6 10.5-4.2" stroke="#FFFFFF" stroke-opacity="0.35" stroke-width="2" stroke-linecap="round"/>
</svg>
